<svg width="306" height="269" viewBox="0 0 306 269" fill="none" xmlns="http://www.w3.org/2000/svg">
<g clip-path="url(#clip0_110_176)">
<path d="M265.044 48.999C263.319 67.9822 258.406 87.9989 250.7 107.312C241.171 131.196 228.152 152.233 213.05 168.148L212.212 167.418C227.241 151.579 240.201 130.636 249.69 106.851C258.266 85.3566 263.367 62.9889 264.448 42.1754L265.519 42.3545C265.405 44.5527 265.247 46.7675 265.044 48.999Z" fill="#F2F2F2"/>
<path d="M271.913 159.25C250.701 192.963 224.966 217.05 199.449 227.075L198.933 226.13C224.274 216.174 249.857 192.21 270.972 158.651L271.913 159.25Z" fill="#F2F2F2"/>
<path d="M264.529 72.6339C262.805 91.6171 257.891 111.634 250.185 130.947C240.656 154.831 227.637 175.868 212.535 191.783L211.697 191.053C226.726 175.214 239.686 154.27 249.175 130.485C257.751 108.992 262.852 86.6238 263.933 65.8103L265.004 65.9894C264.891 68.1876 264.732 70.4024 264.529 72.6339Z" fill="#F2F2F2"/>
<path d="M26.399 121.37H12.4815C12.1841 121.37 11.8905 121.304 11.6226 121.175C11.3547 121.046 11.1195 120.858 10.9346 120.625C10.752 120.398 10.6232 120.133 10.5578 119.85C10.4924 119.566 10.4922 119.271 10.5571 118.988C11.8826 113.145 11.7993 107.071 10.3141 101.267C10.2202 100.885 10.2429 100.483 10.3794 100.114C10.5158 99.7447 10.7597 99.4248 11.0797 99.1953C18.2362 94.0534 23.8721 94.2027 27.8311 99.6395C28.0095 99.8873 28.1281 100.173 28.1774 100.474C29.2352 106.827 29.2938 113.306 28.3509 119.677C28.2854 120.147 28.0515 120.578 27.6927 120.889C27.3338 121.2 26.8742 121.371 26.399 121.37Z" fill="#E6E6E6"/>
<path d="M22.0842 107.446H17.2966C17.0318 107.446 16.7779 107.341 16.5907 107.154C16.4035 106.967 16.2983 106.714 16.2983 106.449C16.2983 106.185 16.4035 105.931 16.5907 105.744C16.7779 105.557 17.0318 105.452 17.2966 105.452H22.0842C22.3486 105.452 22.602 105.558 22.7887 105.745C22.9755 105.932 23.0804 106.185 23.0804 106.449C23.0804 106.713 22.9755 106.967 22.7887 107.154C22.602 107.34 22.3486 107.446 22.0842 107.446Z" fill="#F9F9F9"/>
<path d="M22.0842 110.944H17.2966C17.0318 110.944 16.7779 110.839 16.5907 110.652C16.4035 110.465 16.2983 110.211 16.2983 109.946C16.2983 109.682 16.4035 109.428 16.5907 109.241C16.7779 109.054 17.0318 108.949 17.2966 108.949H22.0842C22.3486 108.95 22.602 109.055 22.7887 109.242C22.9755 109.429 23.0804 109.682 23.0804 109.946C23.0804 110.211 22.9755 110.464 22.7887 110.651C22.602 110.838 22.3486 110.943 22.0842 110.944Z" fill="#F9F9F9"/>
<path d="M22.0842 114.441H17.2966C17.0318 114.441 16.7779 114.336 16.5907 114.149C16.4035 113.962 16.2983 113.708 16.2983 113.444C16.2983 113.179 16.4035 112.926 16.5907 112.739C16.7779 112.552 17.0318 112.447 17.2966 112.447H22.0842C22.3486 112.447 22.602 112.552 22.7887 112.739C22.9755 112.926 23.0804 113.18 23.0804 113.444C23.0804 113.708 22.9755 113.961 22.7887 114.148C22.602 114.335 22.3486 114.44 22.0842 114.441Z" fill="#F9F9F9"/>
<path d="M279.336 183.447H265.419C265.121 183.448 264.828 183.381 264.56 183.252C264.292 183.123 264.057 182.935 263.872 182.703C263.689 182.476 263.561 182.211 263.495 181.927C263.43 181.644 263.43 181.349 263.494 181.065C264.82 175.223 264.737 169.149 263.252 163.344C263.158 162.962 263.18 162.561 263.317 162.191C263.453 161.822 263.697 161.502 264.017 161.273C271.174 156.131 276.809 156.28 280.768 161.717C280.947 161.965 281.065 162.251 281.115 162.552C282.173 168.905 282.231 175.384 281.288 181.755C281.223 182.225 280.989 182.655 280.63 182.967C280.271 183.278 279.812 183.448 279.336 183.447Z" fill="#E6E6E6"/>
<path d="M275.022 169.524H270.234C269.97 169.523 269.716 169.418 269.529 169.231C269.343 169.044 269.238 168.791 269.238 168.527C269.238 168.263 269.343 168.009 269.529 167.822C269.716 167.635 269.97 167.53 270.234 167.53H275.022C275.286 167.53 275.54 167.635 275.727 167.822C275.915 168.009 276.02 168.262 276.02 168.527C276.02 168.791 275.915 169.045 275.727 169.232C275.54 169.419 275.286 169.524 275.022 169.524Z" fill="#F9F9F9"/>
<path d="M275.022 173.021H270.234C269.97 173.021 269.716 172.915 269.529 172.728C269.343 172.542 269.238 172.288 269.238 172.024C269.238 171.76 269.343 171.507 269.529 171.32C269.716 171.133 269.97 171.027 270.234 171.027H275.022C275.286 171.027 275.54 171.132 275.727 171.319C275.915 171.506 276.02 171.76 276.02 172.024C276.02 172.289 275.915 172.542 275.727 172.729C275.54 172.916 275.286 173.021 275.022 173.021Z" fill="#F9F9F9"/>
<path d="M275.022 176.519H270.234C269.97 176.518 269.716 176.413 269.529 176.226C269.343 176.039 269.238 175.786 269.238 175.521C269.238 175.257 269.343 175.004 269.529 174.817C269.716 174.63 269.97 174.525 270.234 174.524H275.022C275.286 174.524 275.54 174.629 275.727 174.816C275.915 175.003 276.02 175.257 276.02 175.521C276.02 175.786 275.915 176.04 275.727 176.227C275.54 176.414 275.286 176.519 275.022 176.519Z" fill="#F9F9F9"/>
<path d="M332 268.48C332 268.548 331.987 268.616 331.961 268.679C331.935 268.742 331.896 268.8 331.848 268.848C331.799 268.896 331.742 268.935 331.679 268.961C331.615 268.987 331.548 269 331.479 269H0.520754C0.382642 269 0.250191 268.945 0.152531 268.848C0.0548709 268.75 0 268.618 0 268.48C0 268.342 0.0548709 268.21 0.152531 268.112C0.250191 268.014 0.382642 267.96 0.520754 267.96H331.479C331.548 267.959 331.615 267.973 331.679 267.999C331.742 268.025 331.799 268.063 331.848 268.112C331.896 268.16 331.935 268.217 331.961 268.28C331.987 268.344 332 268.411 332 268.48Z" fill="#CCCCCC"/>
<path d="M87.3043 236.628L86.4363 224.567C80.7503 221.728 74.4564 220.318 68.1011 220.459C77.0421 227.364 76.326 241.163 82.5181 250.606C84.472 253.537 87.061 255.991 90.0932 257.786C93.1254 259.581 96.5231 260.672 100.035 260.977L107.476 265.253C108.327 259.633 107.948 253.895 106.366 248.435C104.784 242.975 102.035 237.923 98.3103 233.626C96.1966 231.236 93.7901 229.122 91.1476 227.333C89.5211 231.998 87.3043 236.628 87.3043 236.628Z" fill="#F2F2F2"/>
<path d="M244.696 238.376L245.564 226.316C251.25 223.476 257.544 222.066 263.899 222.208C254.958 229.112 255.674 242.911 249.482 252.355C247.528 255.285 244.939 257.739 241.907 259.534C238.875 261.33 235.477 262.42 231.966 262.725L224.524 267.002C223.673 261.381 224.052 255.644 225.634 250.184C227.216 244.724 229.965 239.671 233.69 235.374C235.803 232.985 238.21 230.87 240.852 229.081C242.479 233.746 244.696 238.376 244.696 238.376Z" fill="#F2F2F2"/>
<path d="M162.061 102.272C166.653 102.272 170.376 98.553 170.376 93.9656C170.376 89.3782 166.653 85.6594 162.061 85.6594C157.469 85.6594 153.747 89.3782 153.747 93.9656C153.747 98.553 157.469 102.272 162.061 102.272Z" fill="#FDEBED"/>
<path d="M166.33 90.5038C166.205 90.3846 166.038 90.3181 165.866 90.3181C165.693 90.3181 165.527 90.3846 165.401 90.5038C163.637 91.9095 162.053 93.5264 160.683 95.3182C160.347 94.6684 160.011 94.0186 159.675 93.3688C159.287 92.6188 158.153 93.2814 158.541 94.0308C159.033 94.9812 159.525 95.9317 160.016 96.8821C160.076 96.9791 160.159 97.0593 160.258 97.1149C160.357 97.1706 160.469 97.1998 160.583 97.1998C160.697 97.1998 160.809 97.1706 160.908 97.1149C161.007 97.0593 161.091 96.9791 161.15 96.8821C162.609 94.829 164.353 92.9937 166.33 91.4312C166.452 91.3077 166.52 91.1411 166.52 90.9675C166.52 90.7939 166.452 90.6273 166.33 90.5038Z" fill="#F9F9F9"/>
<path d="M124.858 117.519L112.32 97.8483L126.839 90.0806L130.65 105.088L157.499 119.583C158.559 119.201 159.707 119.137 160.804 119.396C161.9 119.656 162.897 120.228 163.673 121.044C164.449 121.86 164.971 122.883 165.175 123.99C165.379 125.097 165.256 126.239 164.821 127.278C164.386 128.316 163.658 129.205 162.726 129.838C161.794 130.47 160.698 130.817 159.572 130.838C158.445 130.859 157.337 130.552 156.383 129.954C155.428 129.356 154.668 128.494 154.195 127.473L124.858 117.519Z" fill="#A0616A"/>
<path d="M103.16 74.2552C99.22 80.0335 113.22 101.037 113.22 101.037C113.902 99.5686 120.422 116.061 121.514 115.087C124.617 112.318 129.476 104.605 132.176 104.261C133.721 104.065 128.594 93.1229 128.594 93.1229C128.594 93.1229 126.252 86.6618 123.073 78.4084C122.217 76.0584 120.781 73.9628 118.896 72.3167C117.012 70.6706 114.742 69.5275 112.296 68.9938C112.296 68.9938 107.099 68.4769 103.16 74.2552Z" fill="#3F3D56"/>
<path d="M103.352 262.514L109.307 262.514L112.139 239.569L103.351 239.57L103.352 262.514Z" fill="#A0616A"/>
<path d="M101.833 260.572L103.509 260.572L110.053 257.914L113.56 260.572H113.56C115.542 260.572 117.443 261.358 118.844 262.758C120.246 264.159 121.033 266.057 121.033 268.037V268.28L101.833 268.281L101.833 260.572Z" fill="#2F2E41"/>
<path d="M131.016 262.514L136.97 262.514L139.803 239.569L131.015 239.57L131.016 262.514Z" fill="#A0616A"/>
<path d="M129.497 260.572L131.173 260.572L137.717 257.914L141.224 260.572H141.224C143.206 260.572 145.107 261.358 146.508 262.758C147.91 264.159 148.697 266.057 148.697 268.037V268.28L129.497 268.281L129.497 260.572Z" fill="#2F2E41"/>
<path d="M133.593 137.074L94.8619 138.042C87.5059 142.033 87.3943 150.672 89.8045 160.928C89.8045 160.928 88.9908 167.025 90.6181 168.65C92.2454 170.276 93.0591 170.276 92.2454 173.121C91.4318 175.966 95.7306 180.612 95.2085 181.134C94.6864 181.655 93.4659 184.5 93.4659 184.5L97.5341 207.666C97.5341 207.666 100.382 247.901 101.196 248.714C102.009 249.527 102.823 248.714 102.009 250.746C101.196 252.778 100.382 251.965 101.196 252.778C101.916 253.554 102.595 254.368 103.23 255.216H113.066C113.066 255.216 113.807 251.152 113.807 250.746C113.807 250.339 114.621 247.901 114.621 247.495C114.621 247.088 113.902 246.37 113.902 246.37C113.653 245.544 113.485 244.695 113.4 243.837C113.4 243.024 110.959 211.73 110.959 211.73L115.841 171.089L127.639 210.917C127.639 210.917 127.639 245.869 128.453 246.682C129.266 247.495 129.266 247.088 128.86 248.714C128.453 250.339 126.825 249.933 128.046 251.152C129.266 252.372 129.673 250.339 129.266 252.372L128.86 254.404L141.064 254.578C141.064 254.578 142.692 251.152 141.878 249.933C141.064 248.714 141.113 249.047 142.106 247.051C143.098 245.056 143.505 244.65 143.098 244.243C142.692 243.837 142.692 241.675 142.692 241.675L140.658 202.789C140.658 202.789 140.251 161.741 140.251 160.522C140.22 159.895 140.336 159.269 140.589 158.694V157.039L139.03 151.174L133.593 137.074Z" fill="#2F2E41"/>
<path d="M110.327 56.6196C116.973 56.6196 122.361 51.2372 122.361 44.5976C122.361 37.9581 116.973 32.5757 110.327 32.5757C103.681 32.5757 98.2927 37.9581 98.2927 44.5976C98.2927 51.2372 103.681 56.6196 110.327 56.6196Z" fill="#A0616A"/>
<path d="M116.344 64.5652C118.936 66.1049 120.487 68.934 121.378 71.8128C123.026 77.1426 124.018 82.6532 124.332 88.2227L125.272 104.897L136.918 140.401C126.825 148.933 88.8867 142.34 88.8867 142.34C88.8867 142.34 87.7221 141.952 88.8867 140.789C90.0513 139.625 91.185 140.656 90.0204 139.493C88.8559 138.329 89.6587 139.625 90.0469 138.462C90.4351 137.298 90.0469 138.074 89.6587 137.686C89.2705 137.298 92.6639 133.808 92.6639 133.808L89.5583 113.429L85.6764 72.3213C90.3348 66.5042 99.7033 63.0751 99.7033 63.0751L102.124 58.7222L114.228 59.6895L116.344 64.5652Z" fill="#3F3D56"/>
<path d="M120.247 38.2105C121.182 38.9074 121.875 39.8798 122.228 40.9908C122.364 39.1752 122.373 37.3523 122.254 35.5355C122.112 34.2589 121.213 33.9717 120.171 33.6389C119.23 33.3383 118.166 32.9987 117.88 31.7593C114.097 28.083 107.512 28.2684 103.005 29.5508C100.525 30.2564 99.0982 31.163 98.9706 31.6942L98.9441 31.8035L98.8434 31.8538C96.9319 32.8086 96.5598 35.8236 96.5844 38.1848C96.6309 42.6333 98.1685 47.6857 99.0346 48.0962C99.0805 48.1179 99.0921 48.1094 99.1119 48.0928C100.416 47.0516 102.007 48.172 102.707 48.781C103.119 46.0162 104.447 43.4692 106.478 41.5467C108.51 39.6243 111.128 38.4374 113.914 38.1756C114.823 38.0877 115.726 37.9365 116.615 37.7231C117.065 37.6066 117.529 37.5459 117.994 37.5422C118.796 37.5301 119.582 37.7633 120.247 38.2105Z" fill="#2F2E41"/>
<path d="M194.953 146.654L218.102 123.17L224.201 104.388L214.387 100.422C209.525 105.321 204.52 120.319 204.52 120.319L188.72 141.504C188.593 141.551 188.468 141.6 188.344 141.659C187.616 142.002 186.99 142.527 186.525 143.182C186.06 143.838 185.772 144.603 185.689 145.402C185.606 146.201 185.731 147.008 186.051 147.745C186.372 148.483 186.877 149.124 187.519 149.609C188.161 150.094 188.916 150.405 189.714 150.513C190.511 150.621 191.322 150.521 192.07 150.224C192.817 149.927 193.475 149.442 193.98 148.817C194.485 148.191 194.82 147.446 194.953 146.654Z" fill="#FFB8B8"/>
<path d="M211.709 102.57L224.121 106.157L224.168 106.148C228.73 105.263 232.339 97.6891 234.563 91.4909C235.295 89.4465 235.222 87.2008 234.36 85.2079C233.497 83.215 231.91 81.6235 229.918 80.7551C228.444 80.1245 226.823 79.9182 225.238 80.1596C223.653 80.4011 222.168 81.0806 220.949 82.1213L214.76 87.4448L211.709 102.57Z" fill="#FDEBED"/>
<path d="M201.09 261.817L194.415 261.816L191.24 236.096L201.091 236.096L201.09 261.817Z" fill="#FFB8B8"/>
<path d="M202.793 259.64L200.914 259.64L193.579 256.659L189.647 259.639H189.647C187.425 259.639 185.294 260.521 183.723 262.09C182.152 263.66 181.269 265.788 181.269 268.008V268.28L202.792 268.281L202.793 259.64Z" fill="#2F2E41"/>
<path d="M230.709 261.817L224.033 261.816L220.858 236.096L230.71 236.096L230.709 261.817Z" fill="#FFB8B8"/>
<path d="M232.411 259.64L230.533 259.64L223.197 256.659L219.266 259.639H219.265C217.043 259.639 214.913 260.521 213.342 262.09C211.771 263.66 210.888 265.788 210.888 268.008V268.28L232.411 268.281L232.411 259.64Z" fill="#2F2E41"/>
<path d="M240.887 151.028C240.887 151.028 241.666 160.371 239.718 169.326C237.769 178.28 237.769 203.499 237.769 203.499L233.482 252.642L220.622 251.474L217.114 169.326L204.643 196.968L205.812 200.861L204.255 201.835C204.255 201.835 205.422 209.427 204.643 209.427C203.864 209.427 201.915 210.595 201.915 210.595L203.474 250.695L190.223 250.306L185.547 193.854L190.613 161.539L191.003 155.31L192.757 155.382L193.65 152.78L195.29 148.302L240.887 151.028Z" fill="#2F2E41"/>
<path d="M241.561 152.99L241.63 152.893C245.34 147.705 239.76 135.238 238.919 133.43L242.463 132.281L241.665 125.504L241.287 122.483L243.996 119.777L244.003 119.709L245.562 106.083L247.829 97.0321C248.683 93.6106 248.61 90.0238 247.618 86.6398C246.626 83.2557 244.75 80.1964 242.183 77.7758L236.944 72.841L230.577 63.4293H220.309L216.789 70.0726C213.375 70.8607 210.347 72.82 208.231 75.6093C206.115 78.3986 205.046 81.841 205.209 85.3369L206.007 102.76L202.884 124.454L202.882 128.38L199.366 132.282L200.134 136.117L197.459 137.262L196.277 142.769C195.789 143.413 192.562 147.711 192.562 148.886C192.562 149.063 192.692 149.233 192.972 149.423C195.171 150.91 207.325 153.943 212.705 151.792C218.435 149.504 241.213 152.937 241.442 152.972L241.561 152.99Z" fill="#FDEBED"/>
<path d="M224.117 60.3911C231.627 60.3911 237.715 54.309 237.715 46.8064C237.715 39.3038 231.627 33.2217 224.117 33.2217C216.607 33.2217 210.518 39.3038 210.518 46.8064C210.518 54.309 216.607 60.3911 224.117 60.3911Z" fill="#FFB8B8"/>
<path d="M222.814 60.6111C224.92 60.5896 227.02 60.3884 229.092 60.0098C231.143 59.5377 235.668 56.0422 236.901 53.9771C237.818 52.4428 238.368 50.0696 238.668 48.349C239.073 46.0719 238.995 43.7352 238.438 41.4901C237.882 39.2451 236.86 37.1418 235.438 35.3165C234.89 34.5518 234.146 33.9492 233.283 33.5727C233.207 33.5451 233.128 33.521 233.049 33.5006C231.799 33.2062 230.665 32.5451 229.793 31.6023C229.624 31.4114 229.441 31.2329 229.246 31.0683C228.268 30.2862 227.119 29.7463 225.893 29.4929C223.911 29.0175 221.076 29.6132 217.467 31.2652C215.654 32.0952 213.642 31.8636 212.091 31.5692C212.004 31.5547 211.914 31.5633 211.832 31.5939C211.749 31.6246 211.676 31.6764 211.62 31.7441C210.979 32.3765 210.123 32.7433 209.223 32.7708C208.672 32.8092 208.114 33.5867 207.44 34.5992C207.287 34.829 207.109 35.0973 206.98 35.2609L206.954 34.9535L206.651 35.305C206.175 35.8575 205.846 36.5213 205.696 37.2347C205.546 37.9482 205.578 38.688 205.791 39.3853C206.004 40.0826 206.391 40.7148 206.914 41.2229C207.437 41.731 208.081 42.0985 208.785 42.2912C209.343 42.4243 209.914 42.5001 210.487 42.5174C210.835 42.5397 211.195 42.5627 211.541 42.6135C212.651 42.8109 213.691 43.2924 214.559 44.0111C215.427 44.7298 216.093 45.6611 216.494 46.7141C216.588 46.9575 216.737 47.1758 216.93 47.3524C217.122 47.529 217.353 47.6591 217.603 47.7325C217.854 47.806 218.118 47.821 218.376 47.7762C218.633 47.7315 218.877 47.6283 219.088 47.4745C219.439 47.1865 219.855 46.9876 220.3 46.8948C220.744 46.8019 221.205 46.818 221.642 46.9415C222.022 47.14 222.323 47.4631 222.493 47.8566C222.698 48.2946 223.03 48.6614 223.445 48.9104C224.861 49.594 225.04 52.7795 224.607 55.45C224.189 58.0242 223.281 59.902 222.398 60.0164C221.718 60.1044 221.641 60.1548 221.595 60.2765L221.554 60.3854L221.633 60.4843C222.013 60.6109 222.416 60.6541 222.814 60.6111Z" fill="#2F2E41"/>
<path d="M211.532 104.023L204.996 95.7032C198.338 97.5348 186.524 108.054 186.524 108.054L162.262 118.572C161.452 118.436 160.621 118.516 159.852 118.803C159.083 119.09 158.403 119.575 157.88 120.208C157.358 120.841 157.012 121.6 156.877 122.409C156.742 123.218 156.823 124.048 157.111 124.817C157.399 125.585 157.885 126.263 158.519 126.784C159.153 127.305 159.914 127.65 160.724 127.784C161.534 127.918 162.365 127.836 163.134 127.547C163.902 127.259 164.581 126.773 165.102 126.138L196.884 117.281L211.532 104.023Z" fill="#FFB8B8"/>
<path d="M209.965 105.925L220.279 94.44L220.852 86.3017C220.958 84.7036 220.615 83.1076 219.861 81.694C219.108 80.2804 217.973 79.1056 216.586 78.3023C214.699 77.2261 212.472 76.906 210.358 77.4068C208.243 77.9076 206.397 79.1919 205.194 81.0001C201.55 86.4869 197.63 93.9051 199.647 98.0876L199.667 98.13L209.965 105.925Z" fill="#FDEBED"/>
<path d="M114.907 149.096L88.1013 135.381C86.1947 134.406 85.5631 131.818 86.6935 129.613L104.171 95.5213C105.302 93.3164 107.772 92.3162 109.679 93.2917L136.484 107.006C138.391 107.982 139.023 110.569 137.892 112.774L120.415 146.866C119.284 149.071 116.813 150.071 114.907 149.096Z" fill="#E6E6E6"/>
<path d="M110.327 142.791L92.1148 133.473C90.3291 132.559 89.7375 130.136 90.7961 128.071L105.316 99.7483C106.375 97.6832 108.689 96.7466 110.475 97.6603L132.471 108.914C134.257 109.828 134.848 112.251 133.79 114.316L125.901 129.703C121.186 138.901 118.281 146.86 110.327 142.791Z" fill="#F9F9F9"/>
<path d="M119.331 127.324L103.2 119.071C103.003 118.93 102.863 118.724 102.806 118.489C102.748 118.254 102.777 118.006 102.888 117.79C102.998 117.575 103.182 117.407 103.407 117.316C103.631 117.225 103.881 117.218 104.11 117.296L120.241 125.549C120.438 125.689 120.578 125.896 120.636 126.131C120.693 126.366 120.664 126.614 120.554 126.829C120.443 127.044 120.259 127.213 120.035 127.304C119.81 127.394 119.56 127.402 119.331 127.324Z" fill="#FDEBED"/>
<path d="M105.084 124.461L101.402 122.578C101.205 122.437 101.065 122.231 101.008 121.996C100.95 121.761 100.98 121.513 101.09 121.298C101.2 121.082 101.385 120.914 101.609 120.823C101.834 120.732 102.083 120.725 102.313 120.803L105.994 122.686C106.191 122.827 106.331 123.033 106.388 123.268C106.446 123.503 106.417 123.751 106.306 123.966C106.196 124.182 106.012 124.35 105.787 124.441C105.563 124.532 105.313 124.539 105.084 124.461Z" fill="#FDEBED"/>
<path d="M109.805 131.304L99.6043 126.085C99.4071 125.945 99.267 125.738 99.2096 125.503C99.1523 125.268 99.1814 125.02 99.2918 124.805C99.4022 124.589 99.5865 124.421 99.8109 124.33C100.035 124.239 100.285 124.232 100.514 124.31L110.716 129.529C110.913 129.669 111.053 129.876 111.11 130.111C111.168 130.346 111.138 130.594 111.028 130.809C110.918 131.025 110.733 131.193 110.509 131.284C110.284 131.375 110.035 131.382 109.805 131.304Z" fill="#FDEBED"/>
<path d="M125.715 114.872L109.584 106.619C109.386 106.479 109.246 106.272 109.189 106.037C109.132 105.802 109.161 105.554 109.271 105.339C109.382 105.124 109.566 104.955 109.79 104.864C110.015 104.774 110.264 104.766 110.494 104.844L126.625 113.097C126.822 113.238 126.962 113.444 127.019 113.679C127.077 113.914 127.048 114.162 126.937 114.378C126.827 114.593 126.642 114.761 126.418 114.852C126.194 114.943 125.944 114.95 125.715 114.872Z" fill="#FDEBED"/>
<path d="M111.467 112.01L107.786 110.126C107.589 109.986 107.448 109.779 107.391 109.544C107.334 109.309 107.363 109.062 107.473 108.846C107.584 108.631 107.768 108.462 107.992 108.372C108.217 108.281 108.466 108.273 108.696 108.351L112.377 110.235C112.574 110.375 112.714 110.582 112.772 110.817C112.829 111.052 112.8 111.3 112.69 111.515C112.579 111.73 112.395 111.899 112.17 111.99C111.946 112.081 111.696 112.088 111.467 112.01Z" fill="#FDEBED"/>
<path d="M116.189 118.853L105.988 113.634C105.791 113.493 105.65 113.287 105.593 113.052C105.536 112.817 105.565 112.569 105.675 112.353C105.786 112.138 105.97 111.97 106.194 111.879C106.419 111.788 106.669 111.781 106.898 111.859L117.099 117.078C117.296 117.218 117.436 117.425 117.494 117.66C117.551 117.895 117.522 118.143 117.411 118.358C117.301 118.573 117.117 118.742 116.892 118.833C116.668 118.924 116.418 118.931 116.189 118.853Z" fill="#FDEBED"/>
<path d="M92.6942 119.415L86.6385 96.8938L102.821 93.8335L101.951 109.292L123.213 131.163C124.339 131.117 125.454 131.4 126.421 131.976C127.389 132.552 128.168 133.396 128.664 134.407C129.16 135.418 129.35 136.551 129.212 137.668C129.074 138.785 128.614 139.838 127.888 140.698C127.161 141.558 126.2 142.189 125.121 142.512C124.042 142.836 122.892 142.839 121.811 142.522C120.731 142.204 119.766 141.579 119.034 140.723C118.303 139.867 117.837 138.817 117.693 137.7L92.6942 119.415Z" fill="#A0616A"/>
<path d="M84.9827 71.6422C79.4898 75.9743 86.54 100.206 86.54 100.206C87.6315 99.0089 88.8999 116.695 90.2341 116.093C94.0261 114.382 100.976 108.479 103.656 108.96C105.188 109.236 103.583 97.2618 103.583 97.2618C103.583 97.2618 103.287 90.3962 102.732 81.5703C102.622 79.0721 101.88 76.6426 100.577 74.5077C99.2736 72.3729 97.4508 70.6021 95.2782 69.3604C95.2782 69.3604 90.4756 67.3102 84.9827 71.6422Z" fill="#3F3D56"/>
<path d="M176.38 169.404L161.752 162.503C161.439 162.357 161.164 162.141 160.946 161.873C160.729 161.604 160.575 161.29 160.496 160.954C160.417 160.625 160.413 160.283 160.485 159.952C160.557 159.622 160.704 159.312 160.913 159.046C165.15 153.636 168.059 147.31 169.408 140.574C169.51 140.058 169.788 139.594 170.194 139.26C170.6 138.926 171.11 138.743 171.636 138.742C179.097 138.768 184.672 141.489 188.208 146.83C188.394 147.107 188.518 147.422 188.57 147.753C188.622 148.083 188.601 148.421 188.509 148.742C186.462 155.791 183.347 162.486 179.272 168.593C178.969 169.054 178.51 169.391 177.978 169.54C177.446 169.689 176.878 169.641 176.38 169.404Z" fill="#E6E6E6"/>
<path d="M180.683 159.726L169.498 154.45C169.22 154.318 169.005 154.082 168.901 153.793C168.798 153.503 168.813 153.185 168.944 152.907C169.076 152.629 169.312 152.414 169.602 152.311C169.892 152.207 170.211 152.222 170.489 152.354L181.673 157.63C181.811 157.695 181.935 157.786 182.037 157.899C182.14 158.011 182.219 158.143 182.27 158.287C182.322 158.43 182.344 158.582 182.337 158.734C182.33 158.886 182.292 159.035 182.227 159.173C182.162 159.31 182.071 159.434 181.958 159.536C181.845 159.638 181.713 159.717 181.57 159.769C181.426 159.82 181.274 159.843 181.122 159.835C180.97 159.828 180.82 159.791 180.683 159.726Z" fill="#F9F9F9"/>
<path d="M182.42 156.05L171.236 150.774C170.957 150.643 170.743 150.406 170.639 150.117C170.535 149.828 170.55 149.509 170.682 149.231C170.813 148.953 171.05 148.739 171.339 148.635C171.629 148.531 171.948 148.546 172.226 148.678L183.411 153.954C183.689 154.085 183.904 154.321 184.008 154.611C184.111 154.9 184.096 155.219 183.965 155.497C183.833 155.775 183.597 155.989 183.307 156.093C183.017 156.197 182.698 156.181 182.42 156.05Z" fill="#F9F9F9"/>
<path d="M167.475 40.6631L166.434 40.777C161.792 22.554 152.795 9.9293 140.413 4.26749C124.674 -2.92967 105.211 1.90335 85.6099 17.8765C65.9095 33.9312 48.4694 59.2906 36.5027 89.2845L35.4926 88.8226C47.5118 58.6977 65.0413 33.2158 84.8521 17.0719C104.762 0.846338 124.622 -4.02213 140.774 3.36348C153.51 9.18753 162.743 22.0856 167.475 40.6631Z" fill="#F2F2F2"/>
<path d="M52.6145 64.3962C49.8919 70.1259 47.3022 76.062 44.9174 82.0393C31.1938 116.437 24.2392 151.565 24.8076 183.63L23.735 183.515C23.1661 151.332 30.1406 116.082 43.9072 81.5775C46.2989 75.5833 48.8959 69.6305 51.6264 63.8845L52.6145 64.3962Z" fill="#F2F2F2"/>
<path d="M52.0997 88.0311C49.377 93.7608 46.7873 99.6969 44.4025 105.674C30.6789 140.071 23.7243 175.2 24.2927 207.264L23.2201 207.15C22.6512 174.967 29.6257 139.717 43.3923 105.212C45.784 99.2182 48.381 93.2654 51.1115 87.5194L52.0997 88.0311Z" fill="#F2F2F2"/>
<path d="M23.2717 96.6267C24.4573 94.8463 23.7555 92.2978 21.7042 90.9344C19.6528 89.571 17.0287 89.909 15.843 91.6894C14.6573 93.4697 15.3591 96.0182 17.4105 97.3816C19.4619 98.745 22.086 98.407 23.2717 96.6267Z" fill="#CCCCCC"/>
<path d="M275.746 160.92C276.932 159.14 276.23 156.591 274.179 155.228C272.127 153.865 269.503 154.203 268.317 155.983C267.132 157.763 267.833 160.312 269.885 161.675C271.936 163.039 274.56 162.701 275.746 160.92Z" fill="#CCCCCC"/>
</g>
<defs>
<clipPath id="clip0_110_176">
<rect width="332" height="269" fill="white"/>
</clipPath>
</defs>
</svg>
